#!OML:ASF H:\Not Pregnant\Project 1\Capture day 1\Session 1\non-pregnant.ASF
:FULLY-SPECIFIED
:DEGREES
1269
root 3.11414 1.09933 17.093 -98.4661 -6.0424 3.24485
lowerback 15.6591 -2.54386 1.6842
upperback 7.87877 -3.26822 0.663358
thorax -0.465305 -1.67102 0.258101
lowerneck 35.1686 -6.57607 -31.4992
upperneck -3.95543 -21.7454 39.8073
head 1.81308 -14.4286 21.9104
rclavicle 3.33958e-014 -2.26615e-014
rhumerus -24.5699 -23.9182 -58.6646
rradius 19.0507
rwrist 51.8491
rhand -8.02036 -7.12491
rfingers 7.12502
rthumb 17.8892 -36.3221
lclavicle 3.33958e-014 -2.26615e-014
lhumerus -26.8827 -31.2739 95.002
lradius 65.8101
lwrist 22.7256
lhand 3.42274 -10.9273
lfingers 7.12502
lthumb 28.8644 16.8597
rfemur -48.0455 -44.3162 -16.0712
rtibia 139
rfoot 12.4322 42.3728
rtoes -6.27753
lfemur 17.1194 -23.9918 -24.1772
ltibia -2.38542e-015
lfoot 27.5637 -11.7687
ltoes 10.5498
1270
root 3.11264 1.10052 17.0903 -98.1624 -6.02885 3.54894
lowerback 15.5252 -2.67435 1.69966
upperback 7.93934 -3.45168 0.638585
thorax -0.334531 -1.76499 0.244046
lowerneck 35.3769 -6.47762 -31.6104
upperneck -3.82041 -21.7108 39.5405
head 1.77733 -14.4082 21.8033
rclavicle 1.90833e-014 0
rhumerus -23.7824 -23.3006 -59.2787
rradius 19.1354
rwrist 51.3137
rhand -8.06679 -7.27867
rfingers 7.12502
rthumb 17.8446 -36.48
lclavicle 1.90833e-014 0
lhumerus -26.0866 -32.0687 95.0904
lradius 65.9015
lwrist 22.0841
lhand 1.09393 -11.6453
lfingers 7.12502
lthumb 26.6377 16.5007
rfemur -48.9175 -44.3877 -15.3628
rtibia 139.006
rfoot 12.3646 42.0428
rtoes -6.58825
lfemur 16.7798 -23.8594 -24.0557
ltibia 8.74653e-015
lfoot 27.8707 -11.9389
ltoes 9.95947
1271
root 3.11277 1.10122 17.0887 -97.8247 -5.97491 3.87527
lowerback 15.371 -2.80792 1.68948
upperback 7.98303 -3.64309 0.606808
thorax -0.210278 -1.86361 0.236914
lowerneck 35.8893 -6.49527 -31.158
upperneck -4.32416 -21.5482 39.6586
head 1.72992 -14.3781 20.9008
rclavicle 7.95139e-015 -5.56597e-015
rhumerus -22.9947 -22.6404 -59.878
rradius 19.2216
rwrist 50.813
rhand -8.08668 -7.43802
rfingers 7.12502
rthumb 17.8254 -36.6411
lclavicle 7.95139e-015 -5.56597e-015
lhumerus -25.3417 -32.907 95.2187
lradius 65.9695
lwrist 21.2048
lhand -1.79174 -12.3423
lfingers 7.12502
lthumb 23.8731 16.194
rfemur -49.9104 -44.415 -14.5955
rtibia 138.979
rfoot 12.3955 41.6197
rtoes -6.69468
lfemur 16.3962 -23.6995 -23.9651
ltibia -1.35174e-014
lfoot 28.3586 -12.0908
ltoes 9.0614
1272
root 3.11534 1.10084 17.0895 -97.4738 -5.85759 4.23455
lowerback 15.2235 -2.9418 1.64426
upperback 8.0107 -3.83921 0.555114
thorax -0.105852 -1.96534 0.229326
lowerneck 35.9694 -6.3783 -31.3551
upperneck -4.02461 -21.5384 39.313
head 1.77246 -14.355 20.7458
rclavicle 7.95139e-015 4.37326e-015
rhumerus -22.21 -21.9356 -60.4677
rradius 19.3075
rwrist 50.3462
rhand -8.06846 -7.59137
rfingers 7.12502
rthumb 17.843 -36.7928
lclavicle 7.95139e-015 4.37326e-015
lhumerus -24.4202 -33.3183 95.1274
lradius 66.1137
lwrist 21.6528
lhand -2.62833 -12.9146
lfingers 7.12502
lthumb 23.0706 15.7244
rfemur -51.0102 -44.3929 -13.8333
rtibia 138.923
rfoot 12.5025 41.1285
rtoes -6.62721
lfemur 15.9899 -23.4967 -23.9416
ltibia -1.59028e-014
lfoot 28.9015 -12.2342
ltoes 8.0827
1273
root 3.11978 1.09945 17.0925 -97.1226 -5.70412 4.61939
lowerback 15.0965 -3.08099 1.5812
upperback 8.02086 -4.04378 0.495038
thorax -0.0303275 -2.07188 0.22521
lowerneck 36.0785 -6.22041 -31.5884
upperneck -3.76522 -21.485 38.9975
head 1.79258 -14.3157 20.6274
rclavicle 1.59028e-014 -3.97569e-015
rhumerus -21.4321 -21.1858 -61.0388
rradius 19.3877
rwrist 49.928
rhand -8.01696 -7.7293
rfingers 7.12502
rthumb 17.8925 -36.9262
lclavicle 1.59028e-014 -3.97569e-015
lhumerus -23.5269 -33.6832 95.0464
lradius 66.2564
lwrist 22.0973
lhand -3.51203 -13.5184
lfingers 7.12502
lthumb 22.2225 15.2241
rfemur -52.1755 -44.3112 -13.0575
rtibia 138.826
rfoot 12.5988 40.5664
rtoes -6.55405
lfemur 15.5773 -23.2629 -23.9624
ltibia 3.97569e-015
lfoot 29.3961 -12.3906
ltoes 7.14235
